<svg xmlns="http://www.w3.org/2000/svg" width="24" height="24" viewBox="0 0 24 24"><!-- SAM GH icon plane_intersect --><g vector-effect="non-scaling-stroke"><defs><clipPath id="ci"><g transform="translate(-0.5 3.6) scale(0.78)"><polygon points="10,9 18,13 10,17 2,13" fill="#FFFFFF" stroke-width="1.1" stroke-linejoin="round"/><path d="M10 13V3M8 5L10 3L12 5" fill="none" stroke-width="1.5" stroke-linecap="round" stroke-linejoin="round"/></g></clipPath></defs><g transform="translate(5 -1.5) scale(0.78)"><polygon points="10,9 18,13 10,17 2,13" fill="#FFFFFF" stroke="#111111" stroke-width="1.41" stroke-linejoin="round"/><path d="M10 13V3M8 5L10 3L12 5" fill="none" stroke="#111111" stroke-width="1.92" stroke-linecap="round" stroke-linejoin="round"/></g><g transform="translate(-0.5 3.6) scale(0.78)"><polygon points="10,9 18,13 10,17 2,13" fill="#FFFFFF" stroke="#111111" stroke-width="1.41" stroke-linejoin="round"/><path d="M10 13V3M8 5L10 3L12 5" fill="none" stroke="#111111" stroke-width="1.92" stroke-linecap="round" stroke-linejoin="round"/></g><g clip-path="url(#ci)"><g transform="translate(5 -1.5) scale(0.78)"><polygon points="10,9 18,13 10,17 2,13" fill="#ADD485" stroke="#111111" stroke-width="1.41" stroke-linejoin="round"/><path d="M10 13V3M8 5L10 3L12 5" fill="none" stroke="#111111" stroke-width="1.92" stroke-linecap="round" stroke-linejoin="round"/></g></g></g><circle cx="19" cy="19" r="5" fill="#FFFFFF"/><circle cx="19" cy="19" r="4.2" fill="#F6C90E"/><path d="M16.9 21.4v-2.4a2.1 2.1 0 0 1 4.2 0v2.4" fill="none" stroke="#111111" stroke-width="1.7" stroke-linecap="round" stroke-linejoin="round"/></svg>
