<svg xmlns="http://www.w3.org/2000/svg" width="24" height="24" viewBox="0 0 24 24"><g vector-effect="non-scaling-stroke"><g transform="translate(6.5 -2.5) scale(0.72)"><polygon points="6,2 16,7 16,15 6,10" fill="#FFFFFF" stroke="#111111" stroke-width="1.53" stroke-linejoin="round"/><polygon points="2,5 12,10 12,18 2,13" fill="#E3E3E3" stroke="#111111" stroke-width="1.53" stroke-linejoin="round"/><polygon points="4,7.6 10,10.6 10,15.4 4,12.4" fill="#FFFFFF" stroke="#111111" stroke-width="1.53" stroke-linejoin="round"/></g><g transform="translate(-2 3) scale(0.78)"><polygon points="8,2 10.6,3.3 3.6,6.8 1,5.5" fill="#FFFFFF" stroke="#111111" stroke-width="1.41" stroke-linejoin="round"/><polygon points="1,5.5 3.6,6.8 3.6,15.8 1,14.5" fill="#E3E3E3" stroke="#111111" stroke-width="1.41" stroke-linejoin="round"/><polygon points="10.6,3.3 3.6,6.8 3.6,15.8 10.6,12.3" fill="#BDBDBD" stroke="#111111" stroke-width="1.41" stroke-linejoin="round"/><polygon points="10.6,3.3 14.6,5.3 7.6,8.8 3.6,6.8" fill="#ADD485" stroke="#111111" stroke-width="1.41" stroke-linejoin="round"/><polygon points="3.6,6.8 7.6,8.8 7.6,17.8 3.6,15.8" fill="#81BC44" stroke="#111111" stroke-width="1.41" stroke-linejoin="round"/><polygon points="14.6,5.3 7.6,8.8 7.6,17.8 14.6,14.3" fill="#659335" stroke="#111111" stroke-width="1.41" stroke-linejoin="round"/><polygon points="14.6,5.3 17.2,6.6 10.2,10.1 7.6,8.8" fill="#FFFFFF" stroke="#111111" stroke-width="1.41" stroke-linejoin="round"/><polygon points="7.6,8.8 10.2,10.1 10.2,19.1 7.6,17.8" fill="#E3E3E3" stroke="#111111" stroke-width="1.41" stroke-linejoin="round"/><polygon points="17.2,6.6 10.2,10.1 10.2,19.1 17.2,15.6" fill="#BDBDBD" stroke="#111111" stroke-width="1.41" stroke-linejoin="round"/></g></g></svg>
